<svg xmlns="http://www.w3.org/2000/svg" viewBox="0 0 24 24" fill="none" stroke="currentColor" stroke-width="1.8" stroke-linecap="round" stroke-linejoin="round">
  <path d="M9 3a2.5 2.5 0 0 0-4.5 1.5c0 .4.1.8.3 1.1A2.7 2.7 0 0 0 3 7.5 2.5 2.5 0 0 0 5 10v.5A2.5 2.5 0 0 0 6.5 15 2.5 2.5 0 0 0 9 18v-2.5"></path>
  <path d="M15 3a2.5 2.5 0 0 1 4.5 1.5c0 .4-.1.8-.3 1.1A2.7 2.7 0 0 1 21 7.5 2.5 2.5 0 0 1 19 10v.5A2.5 2.5 0 0 1 17.5 15 2.5 2.5 0 0 1 15 18v-2.5"></path>
  <path d="M9 5.5A3.5 3.5 0 0 1 15 5.5v9A3.5 3.5 0 0 1 9 14.5Z"></path>
  <circle cx="12" cy="9" r="0.9"></circle>
  <path d="M12 9.9v2"></path>
</svg>
