<svg xmlns="http://www.w3.org/2000/svg" viewBox="0 0 24 24" fill="none" stroke="currentColor" stroke-width="1.8" stroke-linecap="round" stroke-linejoin="round">
  <circle cx="12" cy="12" r="3"></circle>
  <path d="M19.4 13a7.9 7.9 0 0 0 0-2l2-1.2a1 1 0 0 0 .4-1.3l-1.9-3.3a1 1 0 0 0-1.2-.4l-2.3.9a7.9 7.9 0 0 0-1.7-1L14 2.3A1 1 0 0 0 13 2h-2a1 1 0 0 0-1 .3L9.3 4.7a7.9 7.9 0 0 0-1.7 1l-2.3-.9a1 1 0 0 0-1.2.4L2.2 8.5a1 1 0 0 0 .4 1.3L4.6 11a7.9 7.9 0 0 0 0 2l-2 1.2a1 1 0 0 0-.4 1.3l1.9 3.3a1 1 0 0 0 1.2.4l2.3-.9a7.9 7.9 0 0 0 1.7 1L10 21.7a1 1 0 0 0 1 .3h2a1 1 0 0 0 1-.3l.7-2.4a7.9 7.9 0 0 0 1.7-1l2.3.9a1 1 0 0 0 1.2-.4l1.9-3.3a1 1 0 0 0-.4-1.3Z"></path>
</svg>
